<svg width="139" height="62" viewBox="0 0 139 62" fill="none" xmlns="http://www.w3.org/2000/svg">
<rect width="138.913" height="62" rx="6.2" fill="#FFCA20"/>
<path d="M55.2317 46.8251C55.2317 47.5857 54.9592 48.2398 54.4166 48.7848C53.8716 49.3274 53.22 49.5999 52.4569 49.5999H49.6821V29.2768C49.6821 25.4689 50.797 22.8699 53.0292 21.4825C55.259 20.0951 57.682 19.4014 60.2933 19.4014C61.6535 19.4014 63.0285 19.6591 64.4159 20.1769C65.8033 20.6947 66.9058 21.4429 67.7209 22.4215C69.3536 24.5423 70.1687 27.2651 70.1687 30.5825C70.1687 33.8999 69.3536 36.7862 67.7209 38.9069C66.0882 40.9757 63.9947 42.0088 61.4354 42.0088C60.0753 42.0088 58.8786 41.7635 57.8455 41.2755C56.7554 40.7329 55.8858 39.888 55.2342 38.7459V46.8251H55.2317ZM64.5348 30.8302C64.5348 28.707 64.126 27.0768 63.3109 25.9322C62.4958 24.79 61.3239 24.2177 59.8027 24.2177C58.2815 24.2177 57.1914 24.79 56.3739 25.9322C55.6108 26.9653 55.2317 28.598 55.2317 30.8302C55.2317 32.899 55.6405 34.4499 56.4556 35.483C57.2707 36.6251 58.4401 37.1975 59.9638 37.1975C61.3785 37.1975 62.4933 36.6251 63.3109 35.483C64.126 34.3409 64.5348 32.7899 64.5348 30.8302Z" fill="black"/>
<path d="M95.405 12.3998H98.1798C98.9404 12.3998 99.5945 12.6848 100.14 13.2571C100.682 13.8294 100.955 14.4686 100.955 15.1747V32.1358C100.955 36.0007 99.8397 38.612 97.6075 39.9697C95.3752 41.3299 92.9547 42.0112 90.3434 42.0112C88.9287 42.0112 87.5413 41.7783 86.1812 41.3175C84.821 40.8567 83.7334 40.1084 82.9158 39.0728C81.3376 37.0611 80.5497 34.3135 80.5497 30.8301C80.5497 27.3467 81.3376 24.6561 82.9158 22.5874C84.5485 20.4642 86.642 19.4038 89.2013 19.4038C90.5614 19.4038 91.7581 19.6763 92.7912 20.2189C93.8788 20.873 94.7509 21.7153 95.4025 22.7484V12.3998H95.405ZM86.0994 30.5848C86.0994 32.7626 86.5082 34.4201 87.3233 35.5622C88.1384 36.7043 89.3078 37.2766 90.8315 37.2766C92.3551 37.2766 93.4428 36.7043 94.2604 35.5622C95.021 34.4201 95.4025 32.7601 95.4025 30.5848C95.4025 28.6251 94.9937 27.0767 94.1786 25.9321C93.3065 24.8444 92.1396 24.2994 90.6704 24.2994C89.2013 24.2994 88.1409 24.8717 87.3233 26.0138C86.5082 27.1039 86.0994 28.6251 86.0994 30.5848Z" fill="black"/>
<path d="M106.598 39.645C105.456 38.6664 104.639 37.3484 104.151 35.686C103.66 34.026 103.417 32.2992 103.417 30.503C103.417 29.0338 103.62 27.5646 104.029 26.0955C104.438 24.6263 105.077 23.4024 105.947 22.4238C107.361 20.7911 109.182 19.8273 111.415 19.5276C113.644 19.2303 115.659 19.4062 117.455 20.0578C119.521 20.8729 121.045 22.29 122.026 24.3018C122.95 26.098 123.413 28.1915 123.413 30.5872C123.413 32.3289 123.223 33.8253 122.841 35.0765C122.459 36.3276 121.969 37.3905 121.372 38.2601C120.066 40.0563 118.406 41.1712 116.392 41.6072C114.596 42.0978 112.787 42.1374 110.964 41.7286C109.14 41.3199 107.686 40.6261 106.598 39.6475V39.645ZM110.515 25.2804C109.373 26.5315 108.855 28.3946 108.964 30.8721C109.073 33.3497 109.537 35.074 110.352 36.0551C110.679 36.4912 111.249 36.8578 112.066 37.1576C112.881 37.4574 113.711 37.4846 114.556 37.2394C115.399 36.9941 116.147 36.3822 116.801 35.4035C117.455 34.4249 117.807 32.8467 117.861 30.669C117.861 28.7093 117.547 27.2401 116.922 26.2615C116.295 25.2829 115.577 24.656 114.759 24.3835C113.944 24.111 113.127 24.0986 112.312 24.3439C111.494 24.5891 110.897 24.9013 110.515 25.2828V25.2804Z" fill="black"/>
<path d="M27.3351 19.894H26.9263C25.4572 19.894 24.0301 20.0848 22.6427 20.4663C21.2553 20.8479 20.0438 21.445 19.0106 22.2626C17.9205 23.1346 17.0658 24.2892 16.439 25.7311C15.8122 27.173 15.5 28.9543 15.5 31.0776V41.6046H18.2847C19.0453 41.6046 19.6994 41.332 20.2445 40.7895C20.7672 40.2667 21.0373 39.6399 21.0571 38.9165V29.5242C21.0571 27.2746 22.8805 25.4487 25.1326 25.4487H24.9716C25.7322 25.4487 26.3862 25.1761 26.9313 24.6335C27.464 24.0984 27.7365 23.4567 27.7464 22.7135V19.899H27.3376L27.3351 19.894Z" fill="black"/>
<path d="M75.7182 41.602H72.5519V22.5251C72.5519 21.0336 73.7956 19.8221 75.3292 19.8221C76.8628 19.8221 78.1065 21.0311 78.1065 22.5251V39.2781C78.1065 40.5615 77.0362 41.602 75.7182 41.602Z" fill="black"/>
<path d="M44.9402 20.9549C43.4166 19.9218 41.1323 19.404 38.0849 19.404C35.3646 19.404 33.2686 20.0308 31.7994 21.2819C30.4938 22.372 29.7307 23.7595 29.5152 25.4442H32.6517C33.4049 25.355 34.2497 25.4367 35.6892 24.5399C35.8651 24.4061 36.0657 24.2996 36.2887 24.2203C36.8858 24.0047 37.5671 23.8932 38.3302 23.8932C39.0363 23.8932 39.8118 24.0146 40.6566 24.2599C41.4989 24.5052 41.9226 25.0354 41.9226 25.8505C41.9226 26.9406 40.726 27.6467 38.3327 27.9737C37.8421 28.0282 37.4061 28.0951 37.027 28.1769C36.6455 28.2586 36.3184 28.2983 36.0484 28.2983C33.9797 28.6253 32.2801 29.2769 30.9472 30.258C29.6143 31.2366 28.9478 32.8693 28.9478 35.1561C28.9478 37.6039 29.6812 39.3604 31.1503 40.4208C32.6195 41.4812 34.334 42.0114 36.2912 42.0114C37.2698 42.0114 38.3996 41.942 39.678 41.8082C40.9564 41.6719 42.1679 41.3053 43.31 40.7057C44.3976 40.1631 45.3366 39.2787 46.1245 38.0523C46.9123 36.8284 47.3087 35.1288 47.3087 32.9511V25.5235C47.3087 23.5637 46.5184 22.0425 44.9427 20.9524L44.9402 20.9549ZM42.0019 32.7058C42.0019 34.2295 41.5658 35.4261 40.6962 36.2957C39.8241 37.1678 38.6275 37.6014 37.1063 37.6014C36.1797 37.6014 35.4736 37.3834 34.9855 36.9473C34.495 36.4568 34.2497 35.8052 34.2497 34.9876C34.2497 34.3905 34.4405 33.7909 34.822 33.1914C35.2581 32.7578 35.9642 32.4035 36.9453 32.131L38.8232 31.7222C40.1834 31.3952 41.2438 31.0434 42.0068 30.6618V32.7033L42.0019 32.7058Z" fill="black"/>
<path d="M75.5428 17.8115H72.6986V14.9673C72.6986 13.6294 73.7813 12.5467 75.1191 12.5467H75.5428C76.8807 12.5467 77.9633 13.6294 77.9633 14.9673V15.3909C77.9633 16.7288 76.8807 17.8115 75.5428 17.8115Z" fill="black"/>
</svg>
