<?xml version="1.0" encoding="utf-8"?>
<!-- Generator: Adobe Illustrator 23.0.3, SVG Export Plug-In . SVG Version: 6.00 Build 0)  -->
<svg version="1.1" id="layer" xmlns="http://www.w3.org/2000/svg" xmlns:xlink="http://www.w3.org/1999/xlink" x="0px" y="0px"
	 viewBox="0 0 600 205.6" style="enable-background:new 0 0 600 205.6;" xml:space="preserve">
<style type="text/css">
	.st0{fill:#FFFFFF;}
	.st1{fill:#D7DF23;}
</style>
<path d="M529.4,96.3l-38.3,65.9l-32.6,0.1l70.9-124.1L600,162.3h-33.2L529.4,96.3L529.4,96.3z M426.4,133.6H463l-17,28.7h-47.7
	l0.1-34.9V39h28.1L426.4,133.6L426.4,133.6z M326.1,39c34.9,0.1,63.1,27.7,62.9,61.7c-0.1,33.9-28.3,61.5-63.2,61.5
	c-34.7-0.1-62.9-27.7-62.9-61.7C263.1,66.5,291.3,39,326.1,39z M326,133.5c18.7,0,33.7-14.7,33.7-32.8c0.1-18.1-15-32.9-33.6-32.9
	c-18.5-0.1-33.7,14.7-33.7,32.8C292.3,118.7,307.5,133.5,326,133.5L326,133.5z M211,90.9c-0.4-5.1-1.7-11.9-3.7-18.4
	c-4-13.4-11-25.8-20.5-36.1c-5-5.4-10.6-10.3-18.9-16.2c-6.4-3.1-12.6-6.5-18.8-10.1c-4-2.3-8.9-5.1-15.3-7.1
	c-7.6-1.8-15.3-2.8-23.1-2.9c-7.6-0.3-15.1,0.4-22.5,1.8c-7.7,1.3-14.1,3.3-22.6,5.4c-19.2,8.3-34.1,20.8-46.9,37.4
	c-44.7,62.4-4.3,149.7,70.3,160c12.3,1.7,24.6,1,36.2-1.7l8.2-2.2c0.3-0.1,0.7-0.3,0.9-0.3l9.4-3.6c0.5-0.3,0.9-0.4,1.4-0.6l3.9-1.8
	c7.5-3.7,14.6-8.3,21-13.6c-5.9,5.3-12.3,10.1-19.1,14.2l0.4,0.3c1.3-0.4,2.5-0.8,3.8-1c0,0,0,2-0.3,1.7c-2.1,1.5,1.2,0.1,5.4-2
	c4.2-2.2,8.2-4.8,11.9-7.9c5.4-4.5,10.1-9.3,16.7-17.2c6.8-11.9,15.3-22.2,19.2-36.1c1.3-3.7,2.5-8,3.3-12.5s1.3-9.1,1.3-13.8
	C212.5,101.8,212,96.9,211,90.9z M114.3,195.7c22.9-3.6,42-16.2,57.7-33.4c4.3-6.3,7.7-12,11.9-18.2c5.2-12.8,4.8-24.1,6.5-32.1
	c2.1-14.5-2.9-26.3-7-38.8c-6.4-14.5-14.9-25.4-29.8-33.8C116,16.2,64.8,22.7,40.4,57.4c-0.1,0-0.8,0.9-2.1,2.7
	c1.7-7.1,6-11.3,10.3-15.4C61.4,34.2,76.3,26,93.3,21.9c19.2-2,38.3,0,55.4,8.3c25.6,14.5,42.6,37.4,46.9,64.4v25
	C190.2,160.4,154.9,191.5,114.3,195.7z M208.2,102.6C207.3,42.7,147.6,2.2,89.5,10.4C72.5,14.6,54,23,40.8,34.8
	C34.4,39,31.4,46.8,25,53C-0.6,90.4,3.8,138.2,35.7,167.3c4.1,4,8.4,7.8,13.1,11.2C22.2,162.6,10.1,138.4,6,109.1
	c0-10.5,2.1-20.8,4.3-31.2C25.2,32.1,72.1-1.2,123.1,7.3c8.5,2,17,4.2,25.6,6.3c10.7,4.2,21.3,10.5,29.8,18.7
	c8.5,8.3,14.9,18.7,21.3,29.1c4.3,8.3,6.4,18.7,8.5,27C208.6,93.1,208.6,97.9,208.2,102.6L208.2,102.6z"/>
<path class="st0" d="M155.2,103.5c0,25.8-21.7,46.7-48.4,46.7c-26.8,0-48.4-20.9-48.4-46.7s21.7-46.7,48.4-46.7
	S155.2,77.8,155.2,103.5L155.2,103.5z"/>
<path class="st1" d="M155.5,95.6c-0.7-3.6-1.7-6.4-2.7-10.3c-4.2-8.7-10.3-15.4-18.4-21.2c-30.3-20-72-0.8-76.4,33.4
	C56.3,111,61.1,124,69.8,134c-2.6-2.7-5.5-5.5-7.4-8.7l-0.3,0.3c0.3,0.8,1.3,1.3,1.6,2c0,0-1,0-0.8-0.1c-0.8-0.9-0.1,0.5,1,2.4
	c1,1.9,2.4,3.7,3.9,5.4c2.2,2.4,4.6,4.6,8.5,7.5c5.8,2.9,10.8,6.8,17.5,8.5c1.8,0.5,3.9,1,6,1.4c2.2,0.4,4.3,0.5,6.7,0.5
	c2.2,0,4.6-0.3,7.4-0.8c3-0.3,5.9-0.9,8.7-1.8c6.4-1.9,12.3-5.2,17.2-9.7c2.5-2.3,6-5.2,8.7-9.1c2.2-4.3,2.5-6.5,3.5-8.4
	s2.3-4.1,3.3-7c0.7-3.5,1.2-7,1.3-10.6C156.5,102.4,156.3,99,155.5,95.6L155.5,95.6z M124.4,71.9c4.4,2.5,5.1,2.9,2.7,1.3
	c3.4,0.8,5.5,2.7,7.6,4.6c5.1,5.7,9.3,12.5,11.4,20.3c1.2,8.8,0.3,17.6-3.5,25.4c-6.8,11.9-17.6,19.8-30.6,21.9c-1.4,0-3,0-4.4,0.1
	c3.7-0.6,6-2.9,12.7-5.4c7.2-2.5,15.3-14.4,19.2-21.3C150.9,100.1,137.3,82.8,124.4,71.9z M99.8,145.6c-19.8-2-35.1-18.2-37.2-37
	c1.8,10.5,8.1,18.5,16.6,25.6c3,1.9,7.4,4.6,10.4,6.5c5.1,1.9,8.1,4,13.1,4.8L99.8,145.6L99.8,145.6z M153.2,111.6
	c-0.9,4-1.8,7.8-2.7,11.7c-2,4.8-4.8,9.8-8.7,13.8s-8.9,7-13.8,9.9c-3.9,2-8.9,3.1-12.9,4.1c-2.4,0.3-5.1-0.8-7.4-0.9
	c29-0.8,48.8-27.7,44.5-54.3c-2.1-7.8-6.3-14.5-11.4-21.3c-2.1-2.9-6.1-4.7-9.1-7.7c-18.2-11.3-42.2-9.1-55.9,5.9
	c-1.9,2-3.7,4-5.4,6.2c7.3-10.7,19.1-18.2,33.2-20.4c5-0.1,10.1,0.8,15,1.7C140.4,66.9,156.8,88.1,153.2,111.6L153.2,111.6z"/>
</svg>
